:FULLY-SPECIFIED
:FORCE-ALL-JOINTS-BE-3DOF
:DEGREES
306
root 9.05835 15.6139 -23.4232 29.3222 61.933 33.1404
lfemur -13.7807 14.1272 -18.482
ltibia 47.7065 0 0
lfoot -15.9213 -10.4976 0
ltoes 20.8252 0 0
rfemur -44.5653 -4.24689 10.8427
rtibia 54.4991 0 0
rfoot 8.64493 -18.1991 0
rtoes 40.0492 0 0
lowerback 6.58743 -3.75117 -5.0731
upperback 4.28596 -5.13936 -2.87808
thorax 0.943482 -2.5841 0.151148
lowerneck -2.93184 -12.2734 -2.90247
upperneck -0.703225 -16.3525 7.22285
head 1.22417 -8.16916 2.35954
lclavicle -8.3417e-15 1.76434e-14 0
lhumerus -46.2039 -45.9152 108.659
lradius 60.1188 0 0
lwrist 15.3605 0 0
lhand 15.7313 13.5588 0
lfingers 7.12502 0 0
lthumb 40.5372 38.6007 0
rclavicle -8.3417e-15 1.76434e-14 0
rhumerus -42.3533 14.3848 -83.5481
rradius 75.0899 0 0
rwrist 6.85981 0 0
rhand -34.1505 -16.7533 0
rfingers 7.12502 0 0
rthumb -7.32228 -766.536 0
307
root 9.03809 15.6215 -23.3708 28.4851 60.9757 32.0799
lfemur -13.7158 14.5215 -18.2872
ltibia 47.4282 0 0
lfoot -16.0566 -9.29495 0
ltoes 18.9883 0 0
rfemur -44.7002 -4.40154 10.3189
rtibia 54.5332 0 0
rfoot 8.66476 -18.1655 0
rtoes 39.9181 0 0
lowerback 6.54284 -3.64063 -5.01012
upperback 4.26272 -4.99057 -2.81765
thorax 0.937663 -2.51033 0.169865
lowerneck -2.96865 -12.2567 -2.70814
upperneck -0.919389 -16.3228 7.22093
head 1.14174 -8.15839 2.33661
lclavicle -9.02048e-15 1.76628e-14 0
lhumerus -46.3983 -46.1477 108.919
lradius 60.1062 0 0
lwrist 15.3253 0 0
lhand 15.6492 13.5583 0
lfingers 7.12502 0 0
lthumb 40.46 38.6239 0
rclavicle -9.02048e-15 1.76628e-14 0
rhumerus -40.9063 14.3615 -82.471
rradius 75.3436 0 0
rwrist 6.35237 0 0
rhand -34.423 -17.3232 0
rfingers 7.12502 0 0
rthumb -7.58527 -767.096 0
308
root 9.01784 15.6291 -23.3184 27.648 60.0184 31.0194
lfemur -13.6508 14.9158 -18.0924
ltibia 47.1499 0 0
lfoot -16.192 -8.09228 0
ltoes 17.1514 0 0
rfemur -44.8351 -4.55618 9.79505
rtibia 54.5673 0 0
rfoot 8.68459 -18.1318 0
rtoes 39.7869 0 0
lowerback 6.49825 -3.5301 -4.94714
upperback 4.23949 -4.84178 -2.75722
thorax 0.931844 -2.43656 0.188582
lowerneck -3.00547 -12.24 -2.5138
upperneck -1.13555 -16.2932 7.21901
head 1.05931 -8.14761 2.31368
lclavicle -9.69926e-15 1.76822e-14 0
lhumerus -46.5928 -46.3802 109.179
lradius 60.0937 0 0
lwrist 15.29 0 0
lhand 15.5672 13.5578 0
lfingers 7.12502 0 0
lthumb 40.3828 38.6472 0
rclavicle -9.69926e-15 1.76822e-14 0
rhumerus -39.4594 14.3382 -81.3939
rradius 75.5973 0 0
rwrist 5.84493 0 0
rhand -34.6955 -17.893 0
rfingers 7.12502 0 0
rthumb -7.84826 -767.656 0
309
root 8.99758 15.6368 -23.266 26.811 59.0611 29.9589
lfemur -13.5859 15.3101 -17.8975
ltibia 46.8715 0 0
lfoot -16.3274 -6.88962 0
ltoes 15.3146 0 0
rfemur -44.9701 -4.71083 9.2712
rtibia 54.6014 0 0
rfoot 8.70443 -18.0982 0
rtoes 39.6558 0 0
lowerback 6.45366 -3.41956 -4.88415
upperback 4.21626 -4.69298 -2.69679
thorax 0.926025 -2.36278 0.207299
lowerneck -3.04229 -12.2232 -2.31946
upperneck -1.35172 -16.2635 7.21709
head 0.976886 -8.13684 2.29076
lclavicle -1.0378e-14 1.77015e-14 0
lhumerus -46.7873 -46.6128 109.44
lradius 60.0811 0 0
lwrist 15.2548 0 0
lhand 15.4851 13.5574 0
lfingers 7.12502 0 0
lthumb 40.3057 38.6704 0
rclavicle -1.0378e-14 1.77015e-14 0
rhumerus -38.0125 14.315 -80.3168
rradius 75.851 0 0
rwrist 5.33749 0 0
rhand -34.968 -18.4629 0
rfingers 7.12502 0 0
rthumb -8.11124 -768.215 0
310
root 8.97733 15.6444 -23.2136 25.9739 58.1038 28.8984
lfemur -13.5209 15.7044 -17.7027
ltibia 46.5932 0 0
lfoot -16.4628 -5.68695 0
ltoes 13.4777 0 0
rfemur -45.105 -4.86547 8.74736
rtibia 54.6355 0 0
rfoot 8.72426 -18.0645 0
rtoes 39.5246 0 0
lowerback 6.40907 -3.30903 -4.82117
upperback 4.19303 -4.54419 -2.63636
thorax 0.920206 -2.28901 0.226016
lowerneck -3.07911 -12.2065 -2.12512
upperneck -1.56788 -16.2339 7.21517
head 0.894457 -8.12606 2.26783
lclavicle -1.10568e-14 1.77209e-14 0
lhumerus -46.9818 -46.8453 109.7
lradius 60.0686 0 0
lwrist 15.2195 0 0
lhand 15.4031 13.5569 0
lfingers 7.12502 0 0
lthumb 40.2285 38.6937 0
rclavicle -1.10568e-14 1.77209e-14 0
rhumerus -36.5656 14.2917 -79.2397
rradius 76.1047 0 0
rwrist 4.83005 0 0
rhand -35.2405 -19.0328 0
rfingers 7.12502 0 0
rthumb -8.37423 -768.775 0
311
root 8.95707 15.652 -23.1612 25.1368 57.1465 27.8379
lfemur -13.456 16.0987 -17.5079
ltibia 46.3149 0 0
lfoot -16.5981 -4.48429 0
ltoes 11.6408 0 0
rfemur -45.2399 -5.02012 8.22352
rtibia 54.6696 0 0
rfoot 8.74409 -18.0309 0
rtoes 39.3935 0 0
lowerback 6.36448 -3.19849 -4.75819
upperback 4.16979 -4.3954 -2.57593
thorax 0.914387 -2.21524 0.244733
lowerneck -3.11592 -12.1898 -1.93079
upperneck -1.78405 -16.2042 7.21325
head 0.812029 -8.11529 2.2449
lclavicle -1.17356e-14 1.77403e-14 0
lhumerus -47.1762 -47.0778 109.96
lradius 60.056 0 0
lwrist 15.1843 0 0
lhand 15.321 13.5564 0
lfingers 7.12502 0 0
lthumb 40.1513 38.7169 0
rclavicle -1.17356e-14 1.77403e-14 0
rhumerus -35.1187 14.2684 -78.1626
rradius 76.3584 0 0
rwrist 4.32261 0 0
rhand -35.513 -19.6027 0
rfingers 7.12502 0 0
rthumb -8.63722 -769.335 0
312
root 8.93682 15.6597 -23.1088 24.2997 56.1893 26.7773
lfemur -13.391 16.493 -17.313
ltibia 46.0366 0 0
lfoot -16.7335 -3.28162 0
ltoes 9.80398 0 0
rfemur -45.3748 -5.17477 7.69968
rtibia 54.7037 0 0
rfoot 8.76392 -17.9972 0
rtoes 39.2623 0 0
lowerback 6.31988 -3.08796 -4.6952
upperback 4.14656 -4.24661 -2.51551
thorax 0.908569 -2.14146 0.263449
lowerneck -3.15274 -12.173 -1.73645
upperneck -2.00021 -16.1746 7.21133
head 0.7296 -8.10452 2.22198
lclavicle -1.24144e-14 1.77597e-14 0
lhumerus -47.3707 -47.3104 110.22
lradius 60.0435 0 0
lwrist 15.149 0 0
lhand 15.2389 13.5559 0
lfingers 7.12502 0 0
lthumb 40.0742 38.7401 0
rclavicle -1.24144e-14 1.77597e-14 0
rhumerus -33.6718 14.2451 -77.0855
rradius 76.6122 0 0
rwrist 3.81518 0 0
rhand -35.7856 -20.1726 0
rfingers 7.12502 0 0
rthumb -8.90021 -769.895 0
313
root 8.91656 15.6673 -23.0564 23.4626 55.232 25.7168
lfemur -13.3261 16.8873 -17.1182
ltibia 45.7583 0 0
lfoot -16.8689 -2.07895 0
ltoes 7.96711 0 0
rfemur -45.5097 -5.32941 7.17583
rtibia 54.7378 0 0
rfoot 8.78375 -17.9635 0
rtoes 39.1312 0 0
lowerback 6.27529 -2.97743 -4.63222
upperback 4.12333 -4.09782 -2.45508
thorax 0.90275 -2.06769 0.282166
lowerneck -3.18956 -12.1563 -1.54211
upperneck -2.21637 -16.1449 7.20941
head 0.647171 -8.09374 2.19905
lclavicle -1.30932e-14 1.77791e-14 0
lhumerus -47.5652 -47.5429 110.48
lradius 60.0309 0 0
lwrist 15.1138 0 0
lhand 15.1569 13.5554 0
lfingers 7.12502 0 0
lthumb 39.997 38.7634 0
rclavicle -1.30932e-14 1.77791e-14 0
rhumerus -32.2249 14.2218 -76.0084
rradius 76.8659 0 0
rwrist 3.30774 0 0
rhand -36.0581 -20.7425 0
rfingers 7.12502 0 0
rthumb -9.1632 -770.455 0
